<svg xmlns="http://www.w3.org/2000/svg" width="24" height="24" viewBox="0 0 24 24" fill="none" stroke="#22C55E" stroke-width="2" stroke-linecap="round" stroke-linejoin="round">
  <path d="M7 19H4.815a1.83 1.83 0 0 1-1.57-.881 1.785 1.785 0 0 1-.004-1.784L7.196 9.5" />
  <path d="M11 19h8.203a1.83 1.83 0 0 0 1.556-.89 1.784 1.784 0 0 0 0-1.775l-1.226-2.12" />
  <path d="m14 16-3 3v-2H9v-2h2v-2l3 3Z" />
  <path d="M8.293 13.596 7.196 9.5 11.196 5" />
  <path d="m14.5 5-4 4" />
  <path d="m16.5 7-4 4" />
</svg>